<svg width="40" height="40" viewBox="0 0 40 40" fill="none" xmlns="http://www.w3.org/2000/svg">
<path d="M13.1951 19.6589C13.1951 16.0399 16.14 13.1054 19.7737 13.1054C23.4074 13.1054 26.3538 16.0399 26.3538 19.6589C26.3538 23.2778 23.4074 26.2124 19.7737 26.2124C16.14 26.2124 13.1951 23.2778 13.1951 19.6589ZM9.63795 19.6589C9.63795 25.2341 14.1757 29.7535 19.7737 29.7535C25.3716 29.7535 29.9094 25.2341 29.9094 19.6589C29.9094 14.0836 25.3716 9.56428 19.7737 9.56428C14.1757 9.56428 9.63795 14.0836 9.63795 19.6589ZM27.942 9.16402C27.9418 9.6306 28.0805 10.0868 28.3406 10.4748C28.6007 10.8629 28.9706 11.1654 29.4033 11.3441C29.836 11.5228 30.3123 11.5697 30.7718 11.4789C31.2313 11.388 31.6535 11.1635 31.9849 10.8337C32.3163 10.504 32.542 10.0837 32.6336 9.62612C32.7252 9.16855 32.6785 8.6942 32.4994 8.26306C32.3202 7.83193 32.0168 7.46337 31.6274 7.204C31.238 6.94463 30.7801 6.80609 30.3116 6.8059C29.6836 6.80619 29.0805 7.0547 28.6364 7.49684C28.1923 7.93899 27.9425 8.53861 27.942 9.16402ZM11.7991 35.6607C9.87465 35.5734 8.82865 35.2542 8.13352 34.9845C7.21195 34.6271 6.55441 34.2016 5.86307 33.514C5.17173 32.8264 4.74379 32.1721 4.3866 31.2543C4.11562 30.5623 3.79506 29.5202 3.70758 27.6036C3.61188 25.5314 3.59277 24.9089 3.59277 19.659C3.59277 14.4092 3.61346 13.7884 3.70758 11.7145C3.79522 9.79783 4.11815 8.75779 4.3866 8.06376C4.74537 7.14592 5.17268 6.49105 5.86307 5.80251C6.55346 5.11398 7.21037 4.68778 8.13352 4.33203C8.82833 4.06215 9.87465 3.74289 11.7991 3.65576C13.8798 3.56046 14.5048 3.54143 19.7737 3.54143C25.0425 3.54143 25.6682 3.56203 27.7506 3.65576C29.675 3.74305 30.7193 4.06467 31.4162 4.33203C32.3377 4.68778 32.9953 5.11492 33.6866 5.80251C34.378 6.4901 34.8043 7.14592 35.1631 8.06376C35.4341 8.75575 35.7546 9.79783 35.8421 11.7145C35.9378 13.7884 35.9569 14.4092 35.9569 19.659C35.9569 24.9089 35.9378 25.5296 35.8421 27.6036C35.7545 29.5202 35.4323 30.562 35.1631 31.2543C34.8043 32.1721 34.377 32.827 33.6866 33.514C32.9962 34.2009 32.3377 34.6271 31.4162 34.9845C30.7214 35.2543 29.675 35.5736 27.7506 35.6607C25.6699 35.756 25.0449 35.7751 19.7737 35.7751C14.5024 35.7751 13.8791 35.756 11.7991 35.6607ZM11.6357 0.119054C9.53436 0.21436 8.09846 0.546202 6.84449 1.03217C5.54582 1.53402 4.44644 2.2073 3.34785 3.2997C2.24926 4.39211 1.57498 5.48876 1.07108 6.78215C0.583137 8.03183 0.249943 9.46111 0.154249 11.5539C0.0569755 13.65 0.0347099 14.3202 0.0347099 19.6589C0.0347099 24.9976 0.0569755 25.6677 0.154249 27.7638C0.249943 29.8568 0.583137 31.2859 1.07108 32.5356C1.57498 33.8282 2.24942 34.9261 3.34785 36.018C4.44629 37.11 5.54582 37.7823 6.84449 38.2856C8.10083 38.7715 9.53436 39.1034 11.6357 39.1987C13.7414 39.294 14.4132 39.3177 19.7737 39.3177C25.1341 39.3177 25.807 39.2956 27.9116 39.1987C30.0131 39.1034 31.4481 38.7715 32.7028 38.2856C34.0007 37.7823 35.1009 37.1104 36.1995 36.018C37.2981 34.9256 37.9709 33.8282 38.4762 32.5356C38.9642 31.2859 39.299 29.8566 39.3931 27.7638C39.4888 25.6662 39.511 24.9976 39.511 19.6589C39.511 14.3202 39.4888 13.65 39.3931 11.5539C39.2974 9.46095 38.9642 8.03104 38.4762 6.78215C37.9709 5.48954 37.2963 4.39384 36.1995 3.2997C35.1026 2.20557 34.0007 1.53402 32.7044 1.03217C31.4481 0.546202 30.013 0.212788 27.9132 0.119054C25.8086 0.0237479 25.1357 0 19.7752 0C14.4148 0 13.7414 0.0221752 11.6357 0.119054Z" fill="white" fill-opacity="0.79"/>
</svg>
