<svg width="33" height="36" viewBox="0 0 33 36" fill="none" xmlns="http://www.w3.org/2000/svg">
<path fill-rule="evenodd" clip-rule="evenodd" d="M23.766 13.0085C26.1866 14.7215 29.0855 15.6368 32.0555 15.6257V9.76621C31.4717 9.76782 30.8894 9.7056 30.3191 9.58066V14.2487C27.3425 14.254 24.4393 13.3282 22.0198 11.6022V23.6532C22.0124 25.6307 21.4677 27.5693 20.4433 29.2635C19.4188 30.9578 17.9529 32.3444 16.201 33.2765C14.4491 34.2086 12.4764 34.6513 10.4921 34.5578C8.50792 34.4642 6.5861 33.8379 4.93049 32.7452C6.46189 34.2876 8.41865 35.343 10.553 35.7777C12.6873 36.2123 14.9032 36.0067 16.9201 35.1869C18.9369 34.3671 20.6641 32.9699 21.8827 31.1722C23.1014 29.3746 23.7568 27.2574 23.766 25.0888V13.0085ZM25.9144 7.03179C24.6834 5.70355 23.9281 4.00743 23.766 2.20748V1.44574H22.1179C22.3216 2.58988 22.7649 3.67854 23.419 4.64093C24.0731 5.60333 24.9233 6.41793 25.9144 7.03179ZM8.74663 28.1064C8.17541 27.3628 7.82534 26.4745 7.73628 25.5426C7.64723 24.6107 7.82275 23.6726 8.24289 22.8351C8.66302 21.9976 9.31089 21.2944 10.1128 20.8054C10.9146 20.3164 11.8383 20.0613 12.7786 20.0691C13.2978 20.069 13.8139 20.148 14.309 20.3035V14.2487C13.7302 14.1724 13.1465 14.1398 12.5628 14.1511V18.8582C11.3572 18.4788 10.0524 18.5651 8.90784 19.0998C7.76327 19.6345 6.86283 20.5786 6.3856 21.7441C5.90837 22.9096 5.88932 24.2113 6.33225 25.3901C6.77518 26.569 7.64763 27.5387 8.77606 28.1064H8.74663Z" fill="#EE1D52"/>
<path fill-rule="evenodd" clip-rule="evenodd" d="M22.0189 11.5631C24.4385 13.2891 27.3416 14.2149 30.3183 14.2097V9.5416C28.6223 9.18463 27.0817 8.30677 25.9135 7.03179C24.9225 6.41793 24.0722 5.60333 23.4182 4.64093C22.7641 3.67854 22.3207 2.58988 22.117 1.44574H17.7809V25.0888C17.7769 26.1353 17.4437 27.1543 16.8282 28.0027C16.2128 28.8511 15.3458 29.4863 14.3491 29.8192C13.3525 30.1521 12.2761 30.1659 11.2711 29.8587C10.2661 29.5515 9.38305 28.9387 8.74579 28.1064C7.73587 27.5991 6.92707 26.7679 6.4499 25.7469C5.97273 24.7259 5.85501 23.5747 6.11575 22.4789C6.37648 21.3832 7.00045 20.4068 7.88699 19.7073C8.77353 19.0079 9.87092 18.6262 11.0021 18.6238C11.5211 18.6254 12.037 18.7045 12.5325 18.8582V14.1511C10.3915 14.2022 8.31215 14.8746 6.54961 16.0856C4.78708 17.2966 3.41809 18.9935 2.6107 20.9681C1.80331 22.9427 1.59266 25.1091 2.00461 27.2012C2.41655 29.2933 3.43316 31.2201 4.92964 32.7452C6.5856 33.8457 8.51044 34.4786 10.4991 34.5762C12.4878 34.6739 14.4659 34.2327 16.2226 33.2997C17.9793 32.3666 19.4489 30.9767 20.4748 29.278C21.5007 27.5793 22.0445 25.6353 22.0483 23.6532L22.0189 11.5631Z" fill="#E3E3E3"/>
<path fill-rule="evenodd" clip-rule="evenodd" d="M30.3183 9.5416L30.3188 8.2814C28.7614 8.288 27.2343 7.85494 25.9144 7.03179C27.0796 8.31044 28.6206 9.18903 30.3183 9.5416ZM22.1179 1.44574C22.1179 1.22113 22.0489 0.986346 22.0195 0.761733V0H16.0353V23.6528C16.0301 24.9772 15.4973 26.2455 14.5537 27.1792C13.6102 28.113 12.3331 28.6359 11.0027 28.6333C10.2193 28.6373 9.44641 28.457 8.74663 28.1064C9.3839 28.9387 10.2661 29.5515 11.2711 29.8587C12.2761 30.1659 13.3525 30.1521 14.3491 29.8192C15.3458 29.4863 16.2128 28.8511 16.8282 28.0027C17.4437 27.1543 17.7769 26.1353 17.7809 25.0888V1.44574H22.1179ZM12.5331 14.1409V12.803C10.0706 12.47 7.56744 12.977 5.43153 14.2415C3.29563 15.506 1.65292 17.4534 0.771135 19.7663C-0.110653 22.0791 -0.179528 24.6211 0.575735 26.978C1.331 29.3348 2.86616 31.3679 4.93049 32.7452C3.44533 31.2166 2.43925 29.2901 2.03572 27.2018C1.63219 25.1135 1.84837 22.9534 2.65787 20.9854C3.46737 19.0175 4.83512 17.3268 6.59405 16.1199C8.35297 14.9131 10.4269 14.2424 12.5625 14.1897L12.5331 14.1409Z" fill="#69C9D0"/>
</svg>
