<svg width="37" height="36" viewBox="0 0 37 36" fill="none" xmlns="http://www.w3.org/2000/svg">
<path d="M0.343735 36L2.93562 26.4046C0.84533 22.6667 0.181223 18.3049 1.06517 14.1196C1.94911 9.93431 4.32181 6.20623 7.74787 3.61947C11.1739 1.03272 15.4236 -0.239182 19.7169 0.0371604C24.0103 0.313503 28.0594 2.11956 31.1212 5.1239C34.183 8.12825 36.0522 12.1294 36.3858 16.393C36.7193 20.6567 35.4948 24.897 32.937 28.3357C30.3792 31.7744 26.6597 34.1809 22.4609 35.1136C18.2621 36.0464 13.8658 35.4427 10.0786 33.4135L0.343735 36ZM10.548 29.8229L11.1501 30.1779C13.8932 31.794 17.0971 32.4628 20.2626 32.08C23.428 31.6972 26.3771 30.2844 28.6504 28.0616C30.9237 25.8388 32.3933 22.9309 32.8304 19.7912C33.2675 16.6514 32.6474 13.4562 31.0668 10.7033C29.4862 7.95042 27.0339 5.79459 24.0919 4.57176C21.15 3.34893 17.8838 3.12779 14.8022 3.9428C11.7207 4.75781 8.99688 6.56319 7.05534 9.0776C5.1138 11.592 4.06356 14.6742 4.0683 17.8438C4.06572 20.472 4.79695 23.0493 6.18058 25.2889L6.55814 25.9076L5.10913 31.2632L10.548 29.8229Z" fill="white" fill-opacity="0.79"/>
<path fill-rule="evenodd" clip-rule="evenodd" d="M25.1603 20.3077C24.8073 20.0247 24.3941 19.8256 23.952 19.7254C23.5099 19.6252 23.0506 19.6266 22.6092 19.7295C21.9459 20.0034 21.5173 21.038 21.0888 21.5553C20.9984 21.6793 20.8656 21.7663 20.7153 21.7999C20.565 21.8335 20.4075 21.8115 20.2724 21.7379C17.8441 20.7925 15.8087 19.0588 14.4968 16.8185C14.3849 16.6787 14.3319 16.5012 14.3491 16.3233C14.3662 16.1455 14.4521 15.9812 14.5886 15.865C15.0666 15.3946 15.4176 14.8121 15.6091 14.1711C15.6516 13.4642 15.4886 12.76 15.1397 12.1425C14.8699 11.2768 14.3564 10.506 13.66 9.92116C13.3008 9.76058 12.9026 9.70674 12.5133 9.76613C12.124 9.82553 11.7603 9.99562 11.4661 10.2559C10.9554 10.6939 10.55 11.2402 10.2798 11.8546C10.0096 12.469 9.88145 13.1358 9.90486 13.806C9.90644 14.1823 9.95441 14.557 10.0477 14.9217C10.2847 15.798 10.6491 16.6352 11.1294 17.4068C11.4759 17.9978 11.854 18.57 12.262 19.121C13.5881 20.9305 15.2551 22.4668 17.1703 23.6448C18.1314 24.2434 19.1586 24.7301 20.2316 25.0952C21.3462 25.5975 22.5769 25.7903 23.7929 25.6531C24.4857 25.5489 25.1422 25.277 25.7044 24.8613C26.2667 24.4457 26.7176 23.899 27.0174 23.2695C27.1936 22.8892 27.2471 22.464 27.1705 22.0523C26.9868 21.2104 25.8542 20.7134 25.1603 20.3077Z" fill="white" fill-opacity="0.79"/>
</svg>
